<?xml version="1.0" encoding="utf-8"?>
<!-- Generator: Adobe Illustrator 23.0.0, SVG Export Plug-In . SVG Version: 6.00 Build 0)  -->
<svg version="1.1" id="Layer_1" xmlns="http://www.w3.org/2000/svg" xmlns:xlink="http://www.w3.org/1999/xlink" x="0px" y="0px"
	 viewBox="0 0 200 60" style="enable-background:new 0 0 200 60;" xml:space="preserve">
<style type="text/css">
	.st0{fill:#1D2754;}
	.st1{fill:#FDB71B;}
</style>
<g>
	<g>
		<g>
			<path class="st0" d="M68.5,47.5c-2.1,0-3.9-0.4-5.6-1.1c-1.6-0.7-2.9-1.8-3.8-3.2c-0.9-1.4-1.4-3.2-1.4-5.4c0-1.8,0.3-3.4,1-4.6
				s1.5-2.3,2.6-3.1c1.1-0.8,2.4-1.4,3.9-1.8c1.5-0.4,3-0.7,4.7-0.8c1.9-0.2,3.4-0.4,4.5-0.5c1.1-0.2,2-0.5,2.5-0.8
				c0.5-0.4,0.8-0.9,0.8-1.6v-0.1c0-1.1-0.4-2-1.1-2.6c-0.8-0.6-1.8-0.9-3.1-0.9c-1.4,0-2.5,0.3-3.3,0.9c-0.6,0.4-1,0.9-1.3,1.5
				c-0.3,0.6-0.8,1-1.5,0.9L60.8,24C59.8,24,59,23,59.4,22c0.4-1.2,1-2.3,1.7-3.4c1.2-1.6,2.8-2.8,4.9-3.7c2.1-0.9,4.6-1.4,7.5-1.4
				c2.1,0,4,0.2,5.8,0.7c1.8,0.5,3.3,1.2,4.6,2.1c1.3,0.9,2.3,2.1,3,3.4c0.7,1.4,1.1,2.9,1.1,4.7v20.6c0,1-0.8,1.8-1.8,1.8h-6.2
				c-1,0-1.8-0.8-1.8-1.8v-2.8H78c-0.6,1.1-1.3,2.1-2.2,2.8c-0.9,0.8-2,1.4-3.2,1.7C71.4,47.3,70,47.5,68.5,47.5z M71.7,40.6
				c1.1,0,2.1-0.2,3-0.7c0.9-0.5,1.6-1.1,2.2-1.9c0.5-0.8,0.8-1.8,0.8-2.8v-3.1c-0.3,0.2-0.7,0.3-1.1,0.4c-0.4,0.1-0.9,0.3-1.4,0.4
				c-0.5,0.1-1,0.2-1.5,0.3c-0.5,0.1-1,0.2-1.5,0.2c-1,0.2-1.8,0.4-2.5,0.7c-0.7,0.3-1.2,0.8-1.6,1.3c-0.4,0.5-0.5,1.1-0.5,1.9
				c0,1.1,0.4,1.9,1.2,2.5C69.5,40.3,70.5,40.6,71.7,40.6z"/>
			<path class="st0" d="M104.9,2.9v41.9c0,1.2-0.9,2.1-2.1,2.1h-6.3c-1.2,0-2.1-0.9-2.1-2.1V2.9c0-1.2,0.9-2.1,2.1-2.1h6.3
				C104,0.8,104.9,1.7,104.9,2.9z"/>
			<path class="st0" d="M116.8,10.8c-1.5,0-2.7-0.5-3.8-1.5c-1.1-1-1.6-2.2-1.6-3.6c0-1.4,0.5-2.6,1.6-3.5c1.1-1,2.3-1.5,3.8-1.5
				c1.5,0,2.7,0.5,3.8,1.5c1,1,1.6,2.2,1.6,3.5c0,1.4-0.5,2.6-1.6,3.6C119.5,10.3,118.3,10.8,116.8,10.8z M111.5,44.9V16.6
				c0-1.3,1-2.3,2.3-2.3h5.8c1.3,0,2.3,1,2.3,2.3v28.3c0,1.3-1,2.3-2.3,2.3h-5.8C112.6,47.2,111.5,46.2,111.5,44.9z"/>
			<path class="st0" d="M128.6,56.9V16.7c0-1.4,1.1-2.4,2.4-2.4h5.5c1.3,0,2.4,1.1,2.4,2.4v2.9h0.3c0.4-1,1-2,1.8-2.9
				c0.8-0.9,1.8-1.7,3-2.3c1.2-0.6,2.7-0.9,4.4-0.9c2.3,0,4.4,0.6,6.4,1.8c2,1.2,3.6,3.1,4.8,5.6c1.2,2.5,1.8,5.7,1.8,9.6
				c0,3.7-0.6,6.9-1.8,9.4c-1.2,2.5-2.8,4.4-4.7,5.7c-2,1.3-4.2,1.9-6.6,1.9c-1.7,0-3.1-0.3-4.3-0.8c-1.2-0.5-2.2-1.3-3-2.1
				c-0.8-0.9-1.4-1.8-1.9-2.9h-0.2v15.3c0,1.4-1.1,2.4-2.4,2.4H131C129.7,59.3,128.6,58.2,128.6,56.9z M138.8,30.4
				c0,1.8,0.2,3.3,0.7,4.6c0.5,1.3,1.2,2.3,2.1,3.1c0.9,0.7,2,1.1,3.3,1.1c1.3,0,2.4-0.4,3.3-1.1c0.9-0.7,1.6-1.7,2-3.1
				c0.5-1.3,0.7-2.9,0.7-4.6c0-1.8-0.2-3.3-0.7-4.6c-0.5-1.3-1.1-2.3-2-3c-0.9-0.7-2-1.1-3.3-1.1c-1.3,0-2.4,0.4-3.3,1.1
				c-0.9,0.7-1.6,1.7-2.1,3C139.1,27.1,138.8,28.6,138.8,30.4z"/>
			<path class="st0" d="M182.4,47.6c-3.4,0-6.4-0.7-8.9-2.1c-2.5-1.4-4.4-3.4-5.7-6c-1.3-2.6-2-5.5-2-8.9c0-3.4,0.7-6.4,2-8.9
				c1.3-2.6,3.2-4.5,5.7-6c2.5-1.4,5.4-2.1,8.9-2.1c3.4,0,6.4,0.7,8.9,2.1c2.5,1.4,4.4,3.4,5.7,6c1.3,2.6,2,5.5,2,8.9
				c0,3.4-0.7,6.3-2,8.9c-1.3,2.6-3.2,4.5-5.7,6C188.8,46.8,185.9,47.6,182.4,47.6z M182.5,39.6c1.3,0,2.3-0.4,3.2-1.2
				c0.9-0.8,1.5-1.8,2-3.2c0.5-1.4,0.7-3,0.7-4.8c0-1.8-0.2-3.4-0.7-4.8c-0.5-1.4-1.1-2.4-2-3.2c-0.9-0.8-1.9-1.2-3.2-1.2
				c-1.3,0-2.4,0.4-3.3,1.2c-0.9,0.8-1.6,1.8-2,3.2c-0.5,1.4-0.7,3-0.7,4.8c0,1.8,0.2,3.4,0.7,4.8c0.5,1.4,1.1,2.4,2,3.2
				C180.1,39.2,181.2,39.6,182.5,39.6z"/>
		</g>
	</g>
	<g>
		<path class="st1" d="M39.8,46.8H50c2.2,0,3.5-2.5,2.3-4.4l-23-39.9c-1.1-1.8-3.6-1.7-4.6,0.1l-8.5,14.6c-1.4,2.6,0.2,5,2.8,3.8
			l0.5-0.3c2.1-1.1,3.3-0.1,4.1,1.2l13.8,23.7C38,46.3,38.8,46.8,39.8,46.8z"/>
		<path class="st0" d="M21.7,46.7H3.5c-1.9,0-3.1-2.2-2.1-3.9l9.1-15.7c0.9-1.5,3.1-1.6,4.1-0.1l9.2,15.7
			C24.9,44.4,23.7,46.7,21.7,46.7z"/>
	</g>
</g>
</svg>
