<svg width="175" height="54" viewBox="0 0 175 54" fill="none" xmlns="http://www.w3.org/2000/svg">
<path d="M59.8864 50H58.4091L62.6818 38.3636H64.1364L68.4091 50H66.9318L63.4545 40.2045H63.3636L59.8864 50ZM60.4318 45.4545H66.3864V46.7045H60.4318V45.4545ZM73.3352 50.1818C72.608 50.1818 71.9659 49.9981 71.4091 49.6307C70.8523 49.2595 70.4167 48.7367 70.1023 48.0625C69.7879 47.3845 69.6307 46.5833 69.6307 45.6591C69.6307 44.7424 69.7879 43.947 70.1023 43.2727C70.4167 42.5985 70.8542 42.0777 71.4148 41.7102C71.9754 41.3428 72.6231 41.1591 73.358 41.1591C73.9261 41.1591 74.375 41.2538 74.7045 41.4432C75.0379 41.6288 75.2917 41.8409 75.4659 42.0795C75.6439 42.3144 75.7822 42.5076 75.8807 42.6591H75.9943V38.3636H77.3352V50H76.0398V48.6591H75.8807C75.7822 48.8182 75.642 49.0189 75.4602 49.2614C75.2784 49.5 75.0189 49.714 74.6818 49.9034C74.3447 50.089 73.8958 50.1818 73.3352 50.1818ZM73.517 48.9773C74.0549 48.9773 74.5095 48.8371 74.8807 48.5568C75.2519 48.2727 75.5341 47.8807 75.7273 47.3807C75.9205 46.8769 76.017 46.2955 76.017 45.6364C76.017 44.9848 75.9223 44.4148 75.733 43.9261C75.5436 43.4337 75.2633 43.0511 74.892 42.7784C74.5208 42.5019 74.0625 42.3636 73.517 42.3636C72.9489 42.3636 72.4754 42.5095 72.0966 42.8011C71.7216 43.089 71.4394 43.4811 71.25 43.9773C71.0644 44.4697 70.9716 45.0227 70.9716 45.6364C70.9716 46.2576 71.0663 46.822 71.2557 47.3295C71.4489 47.8333 71.733 48.2348 72.108 48.5341C72.4867 48.8295 72.9564 48.9773 73.517 48.9773ZM79.9773 50V41.2727H81.2727V42.6364H81.3864C81.5682 42.1705 81.8617 41.8087 82.267 41.5511C82.6723 41.2898 83.1591 41.1591 83.7273 41.1591C84.303 41.1591 84.7822 41.2898 85.1648 41.5511C85.5511 41.8087 85.8523 42.1705 86.0682 42.6364H86.1591C86.3826 42.1856 86.7178 41.8277 87.1648 41.5625C87.6117 41.2936 88.1477 41.1591 88.7727 41.1591C89.553 41.1591 90.1913 41.4034 90.6875 41.892C91.1837 42.3769 91.4318 43.1326 91.4318 44.1591V50H90.0909V44.1591C90.0909 43.5152 89.9148 43.0549 89.5625 42.7784C89.2102 42.5019 88.7955 42.3636 88.3182 42.3636C87.7045 42.3636 87.2292 42.5492 86.892 42.9205C86.5549 43.2879 86.3864 43.7538 86.3864 44.3182V50H85.0227V44.0227C85.0227 43.5265 84.8617 43.1269 84.5398 42.8239C84.2178 42.517 83.803 42.3636 83.2955 42.3636C82.947 42.3636 82.6212 42.4564 82.3182 42.642C82.0189 42.8277 81.7765 43.0852 81.5909 43.4148C81.4091 43.7405 81.3182 44.1174 81.3182 44.5455V50H79.9773ZM93.8835 50V41.2727H95.2244V50H93.8835ZM94.5653 39.8182C94.304 39.8182 94.0786 39.7292 93.8892 39.5511C93.7036 39.3731 93.6108 39.1591 93.6108 38.9091C93.6108 38.6591 93.7036 38.4451 93.8892 38.267C94.0786 38.089 94.304 38 94.5653 38C94.8267 38 95.0502 38.089 95.2358 38.267C95.4252 38.4451 95.5199 38.6591 95.5199 38.9091C95.5199 39.1591 95.4252 39.3731 95.2358 39.5511C95.0502 39.7292 94.8267 39.8182 94.5653 39.8182ZM99.0213 44.75V50H97.6804V41.2727H98.9759V42.6364H99.0895C99.294 42.1932 99.6046 41.8371 100.021 41.5682C100.438 41.2955 100.976 41.1591 101.635 41.1591C102.226 41.1591 102.743 41.2803 103.186 41.5227C103.629 41.7614 103.974 42.125 104.22 42.6136C104.466 43.0985 104.589 43.7121 104.589 44.4545V50H103.249V44.5455C103.249 43.8598 103.071 43.3258 102.714 42.9432C102.358 42.5568 101.87 42.3636 101.249 42.3636C100.821 42.3636 100.438 42.4564 100.101 42.642C99.7675 42.8277 99.5043 43.0985 99.3111 43.4545C99.1179 43.8106 99.0213 44.2424 99.0213 44.75Z" fill="white"/>
<path d="M58.4775 26.9259L61.08 21.9876C63.4434 23.4866 66.1838 24.2867 68.8506 24.2867C71.3887 24.2867 72.8509 23.4866 72.8509 22.2175C72.8509 19.0817 61.5122 20.8198 61.5122 13.4813C61.5122 8.44193 65.8159 5.14056 72.713 5.14056C76.0143 5.14056 79.0122 5.83946 81.1181 7.14529L78.7179 12.0468C76.8879 10.8789 74.6165 10.2811 72.3175 10.2811C69.5863 10.2811 68.115 11.2835 68.115 12.5525C68.0782 15.7528 79.4536 13.9228 79.4536 21.1232C79.4536 26.1259 75.0487 29.4272 68.2161 29.4272C64.2158 29.4272 60.5834 28.3605 58.4775 26.9259Z" fill="white"/>
<path d="M81.3569 21.0221C81.3569 15.0539 85.9917 10.5846 92.4657 10.5846C98.2316 10.5846 101.938 13.8216 101.938 18.7874C101.938 24.7924 97.3028 29.2617 90.8288 29.2617C85.0629 29.2617 81.3569 25.9971 81.3569 21.0221ZM95.5004 19.1277C95.5004 17.031 94.2681 15.6608 92.0979 15.6608C89.5598 15.6608 87.7941 17.6931 87.7941 20.7278C87.7941 22.8245 89.0264 24.1671 91.1967 24.1671C93.7256 24.1579 95.5004 22.1256 95.5004 19.1277Z" fill="white"/>
<path d="M107.906 4.22097H114.242L109.304 28.9582H102.968L107.906 4.22097Z" fill="white"/>
<path d="M137.545 4.22097L132.606 28.9674H126.601L126.969 27.2018C125.599 28.4984 123.833 29.2709 121.737 29.2709C117.838 29.2709 114.104 26.3006 114.104 21.0313C114.104 15.0263 118.536 10.5938 123.944 10.5938C126.344 10.5938 128.312 11.3295 129.443 12.994L131.209 4.22097H137.545ZM128.247 19.1277C128.247 17.031 127.015 15.6608 124.845 15.6608C122.307 15.6608 120.541 17.6931 120.541 20.7278C120.541 22.8245 121.773 24.1671 123.944 24.1671C126.473 24.1579 128.247 22.1256 128.247 19.1277Z" fill="white"/>
<path d="M148.92 11.1823L148.856 11.5502H153.123L152.185 16.2861H148.083L145.545 28.9582H139.209L141.747 16.2861H139.081L140.046 11.5502H142.713L142.842 10.8145C143.679 6.6763 146.511 3.9083 151.348 3.9083C153.049 3.9083 154.613 4.23936 155.716 4.87388L153.279 9.30636C152.746 8.9753 152.111 8.77299 151.412 8.77299C150.024 8.78219 149.288 9.55465 148.92 11.1823Z" fill="white"/>
<path d="M175 10.8881L163.431 29.7583C160.599 34.3563 158.263 35.7265 154.465 35.7265C152.562 35.7265 150.465 35.092 149.361 34.1632L152.194 29.6939C152.929 30.3284 153.895 30.7239 154.998 30.7239C156.166 30.7239 156.902 30.2273 157.665 29.087L153.564 10.8789H159.863L162.135 21.9877L168.802 10.8789H175V10.8881Z" fill="white"/>
<path d="M9.2236 28.7099L12.7457 22.0244C15.9551 24.0568 19.6611 25.1419 23.2751 25.1419C26.7052 25.1419 28.6915 24.0568 28.6915 22.3371C28.6915 18.0885 13.3342 20.4427 13.3342 10.5018C13.3342 5.37047 16.6264 1.57252 22.2451 0H5.14976C2.3082 0 0 2.3082 0 5.14976V26.1534C0 28.995 2.3082 31.3032 5.14976 31.3032H15.5504C12.9848 30.6963 10.7961 29.7767 9.2236 28.7099Z" fill="#FBB145"/>
<path d="M53.9989 12.2399L44.7017 1.73805C43.7269 0.634525 42.3199 0 40.8486 0H35.1838C36.9679 0.450604 38.568 1.09432 39.9014 1.91277L36.646 8.56148C34.1631 6.97977 31.0916 6.17052 27.9742 6.17052C24.2682 6.17052 22.2818 7.52233 22.2818 9.24199C22.2359 13.5825 37.6392 11.0904 37.6392 20.8473C37.6392 25.9419 34.2642 29.7307 28.6547 31.3032H40.8394C42.3107 31.3032 43.7177 30.6687 44.6925 29.5652L53.9805 19.0633C55.7185 17.123 55.7185 14.1894 53.9989 12.2399ZM47.249 19.5691C45.0879 19.5691 43.3315 17.8127 43.3315 15.6516C43.3315 13.4905 45.0879 11.7341 47.249 11.7341C49.4101 11.7341 51.1665 13.4905 51.1665 15.6516C51.1665 17.8127 49.4101 19.5691 47.249 19.5691Z" fill="white"/>
</svg>
