<?xml version="1.0" encoding="utf-8"?>
<!-- Generator: Adobe Illustrator 23.0.0, SVG Export Plug-In . SVG Version: 6.00 Build 0)  -->
<svg version="1.1" id="Layer_1" xmlns="http://www.w3.org/2000/svg" xmlns:xlink="http://www.w3.org/1999/xlink" x="0px" y="0px"
	 viewBox="0 0 36 32" style="enable-background:new 0 0 36 32;" xml:space="preserve">
<style type="text/css">
	.st0{fill:#FDB71B;}
	.st1{fill:#FFFFFF;}
</style>
<g>
	<path class="st0" d="M26.7,31.5h7c1.5,0,2.4-1.7,1.6-3L19.6,1.3c-0.8-1.2-2.5-1.1-3.2,0.1l-5.8,9.9c-1,1.7,0.1,3.4,1.9,2.6l0.3-0.2
		c1.4-0.8,2.3-0.1,2.8,0.8l9.4,16.1C25.5,31.2,26.1,31.5,26.7,31.5z"/>
	<path class="st1" d="M14.4,31.5H2c-1.3,0-2.1-1.5-1.4-2.7l6.2-10.8C7.4,17,8.9,17,9.6,18l6.2,10.8C16.6,30,15.8,31.5,14.4,31.5z"/>
</g>
</svg>
