<svg width="150" height="150" viewBox="0 0 150 150" fill="none" xmlns="http://www.w3.org/2000/svg">
<path d="M106.046 98.0959C118.479 80.78 110.829 58.784 106.495 50.828L126.879 41C132 47.5 141.6 68.2 134 93C129.667 109.357 109.6 140.965 64 136.536L70.726 113.54C79.694 114.476 96.2561 111.732 106.046 98.0959Z" fill="#111940"/>
<path d="M62.1504 112.237L54.6086 134C16.8997 118.482 10.5 87 12.6001 64.9247C22.0273 15.7204 68.0001 8.5 88.0752 12.8817L90.9033 2L114 30.3871L80.5334 44.1075L82.4188 34.172C50.3663 31.8064 38.5822 56.4086 37.1682 67.2903C33.6637 94.258 49.895 107.663 62.1504 112.237Z" fill="#FBB145"/>
</svg>
