<svg width="56" height="32" viewBox="0 0 56 32" fill="none" xmlns="http://www.w3.org/2000/svg">
<path d="M9.2236 28.7099L12.7457 22.0244C15.9551 24.0568 19.6611 25.1419 23.2751 25.1419C26.7052 25.1419 28.6915 24.0568 28.6915 22.3371C28.6915 18.0885 13.3342 20.4427 13.3342 10.5018C13.3342 5.37047 16.6264 1.57252 22.2451 0H5.14976C2.3082 0 0 2.3082 0 5.14976V26.1534C0 28.995 2.3082 31.3032 5.14976 31.3032H15.5504C12.9848 30.6963 10.7961 29.7767 9.2236 28.7099Z" fill="#FBB145"/>
<path d="M53.9989 12.2399L44.7017 1.73805C43.7269 0.634525 42.3199 0 40.8486 0H35.1838C36.9679 0.450604 38.568 1.09432 39.9014 1.91277L36.646 8.56148C34.1631 6.97977 31.0916 6.17052 27.9742 6.17052C24.2682 6.17052 22.2818 7.52233 22.2818 9.24199C22.2359 13.5825 37.6392 11.0904 37.6392 20.8473C37.6392 25.9419 34.2642 29.7307 28.6547 31.3032H40.8394C42.3107 31.3032 43.7177 30.6687 44.6925 29.5652L53.9805 19.0633C55.7185 17.123 55.7185 14.1894 53.9989 12.2399ZM47.249 19.5691C45.0879 19.5691 43.3315 17.8127 43.3315 15.6516C43.3315 13.4905 45.0879 11.7341 47.249 11.7341C49.4101 11.7341 51.1665 13.4905 51.1665 15.6516C51.1665 17.8127 49.4101 19.5691 47.249 19.5691Z" fill="white"/>
</svg>
